<svg width="20" height="20" viewBox="0 0 20 20" fill="none" xmlns="http://www.w3.org/2000/svg">
<path d="M10 19.5114C10 19.7877 10.2241 20.013 10.4999 19.9994C15.7905 19.7388 20 15.3642 20 10.0059C20 4.47977 15.5228 0 10 0C4.47715 0 0 4.47977 0 10.0059C0 14.6337 3.13989 18.5277 7.40433 19.6713C7.70966 19.7533 8 19.5158 8 19.1995V12.007H7C6.44771 12.007 6 11.5591 6 11.0064C6 10.4538 6.44772 10.0059 7 10.0059H8V8.00469C8 6.34687 9.3431 5.00293 11 5.00293H12C12.5523 5.00293 13 5.45091 13 6.00352C13 6.55613 12.5523 7.0041 12 7.0041H11C10.4477 7.0041 10 7.45208 10 8.00469V10.0059H12C12.5523 10.0059 13 10.4538 13 11.0064C13 11.5591 12.5523 12.007 12 12.007H10V19.5114Z" fill="white"/>
</svg>
